<svg xmlns="http://www.w3.org/2000/svg" width="128" height="128" viewBox="0 0 128 128">
  <!-- Base dirt color -->
  <rect width="128" height="128" fill="#8B4513"/>
  
  <!-- Dirt texture details -->
  <g fill="#6B3610" opacity="0.5">
    <circle cx="20" cy="20" r="4"/>
    <circle cx="60" cy="30" r="5"/>
    <circle cx="100" cy="15" r="6"/>
    <circle cx="30" cy="50" r="3"/>
    <circle cx="80" cy="40" r="4"/>
    <circle cx="110" cy="60" r="5"/>
    <circle cx="40" cy="80" r="3"/>
    <circle cx="90" cy="70" r="4"/>
    <circle cx="15" cy="100" r="5"/>
    <circle cx="55" cy="90" r="3"/>
    <circle cx="75" cy="110" r="6"/>
    <circle cx="115" cy="95" r="4"/>
  </g>
  
  <!-- Darker spots -->
  <g fill="#5B2E0E" opacity="0.6">
    <circle cx="25" cy="35" r="3"/>
    <circle cx="65" cy="55" r="4"/>
    <circle cx="95" cy="45" r="5"/>
    <circle cx="35" cy="75" r="4"/>
    <circle cx="85" cy="85" r="3"/>
    <circle cx="105" cy="25" r="4"/>
    <circle cx="45" cy="105" r="5"/>
    <circle cx="120" cy="115" r="3"/>
  </g>
</svg>