<svg xmlns="http://www.w3.org/2000/svg" width="128" height="128" viewBox="0 0 128 128">
  <!-- Base stone color -->
  <rect width="128" height="128" fill="#7D7D7D"/>
  
  <!-- Stone texture details - lighter spots -->
  <g fill="#8A8A8A" opacity="0.5">
    <circle cx="20" cy="20" r="8"/>
    <circle cx="60" cy="30" r="10"/>
    <circle cx="100" cy="15" r="12"/>
    <circle cx="30" cy="50" r="6"/>
    <circle cx="80" cy="40" r="8"/>
    <circle cx="110" cy="60" r="10"/>
    <circle cx="40" cy="80" r="6"/>
    <circle cx="90" cy="70" r="8"/>
    <circle cx="15" cy="100" r="10"/>
    <circle cx="55" cy="90" r="6"/>
    <circle cx="75" cy="110" r="12"/>
    <circle cx="115" cy="95" r="8"/>
  </g>
  
  <!-- Stone texture details - darker spots -->
  <g fill="#6A6A6A" opacity="0.6">
    <circle cx="25" cy="35" r="6"/>
    <circle cx="65" cy="55" r="8"/>
    <circle cx="95" cy="45" r="10"/>
    <circle cx="35" cy="75" r="8"/>
    <circle cx="85" cy="85" r="6"/>
    <circle cx="105" cy="25" r="8"/>
    <circle cx="45" cy="105" r="10"/>
    <circle cx="120" cy="115" r="6"/>
  </g>
  
  <!-- Stone cracks -->
  <g stroke="#5D5D5D" stroke-width="1" fill="none">
    <path d="M10,30 L40,35 L45,60"/>
    <path d="M70,10 L65,40 L90,50"/>
    <path d="M30,80 L50,85 L60,110"/>
    <path d="M80,70 L100,75 L110,100"/>
  </g>
</svg>